<?xml version="1.0" standalone="no"?>
<!DOCTYPE svg PUBLIC "-//W3C//DTD SVG 20010904//EN"
 "http://www.w3.org/TR/2001/REC-SVG-20010904/DTD/svg10.dtd">
<svg version="1.0" xmlns="http://www.w3.org/2000/svg"
 width="1024.000000pt" height="1024.000000pt" viewBox="0 0 1024.000000 1024.000000"
 preserveAspectRatio="xMidYMid meet">
<metadata>
Created by potrace 1.14, written by Peter Selinger 2001-2017
</metadata>
<g transform="translate(0.000000,1024.000000) scale(0.100000,-0.100000)"
fill="#000000" stroke="none">
<path d="M1720 10225 c-5 -7 9 -10 41 -11 27 0 49 3 49 8 0 5 6 6 13 1 17 -11
107 -12 107 -1 0 5 6 6 13 1 17 -11 107 -12 107 -1 0 5 6 6 13 1 17 -11 107
-12 107 -1 0 5 6 6 13 1 17 -11 107 -12 107 -1 0 5 6 6 13 1 17 -11 107 -12
107 -1 0 5 6 6 13 1 17 -11 107 -12 107 -1 0 5 6 6 13 1 17 -11 107 -12 107
-1 0 5 6 6 13 1 17 -11 107 -12 107 -1 0 5 6 6 13 1 17 -11 107 -12 107 -1 0
5 6 6 13 1 17 -11 107 -12 107 -1 0 5 6 6 13 1 17 -11 107 -12 107 -1 0 5 6 6
13 1 17 -11 107 -12 107 -1 0 5 6 6 13 1 17 -11 107 -12 107 -1 0 5 6 6 13 1
17 -11 107 -12 107 -1 0 5 6 6 13 1 17 -11 107 -12 107 -1 0 5 6 6 13 1 17
-11 107 -12 107 -1 0 5 6 6 13 1 17 -11 107 -12 107 -1 0 5 6 6 13 1 17 -11
107 -12 107 -1 0 5 6 6 13 1 17 -11 107 -12 107 -1 0 5 6 6 13 1 17 -11 107
-12 107 -1 0 5 6 6 13 1 17 -11 107 -12 107 -1 0 5 6 6 13 1 17 -11 107 -12
107 -1 0 5 6 6 13 1 17 -11 107 -12 107 -1 0 5 6 6 13 1 17 -11 107 -12 107
-1 0 5 6 6 13 1 17 -11 107 -12 107 -1 0 5 6 6 13 1 17 -11 107 -12 107 -1 0
5 6 6 13 1 17 -11 107 -12 107 -1 0 5 6 6 13 1 17 -11 107 -12 107 -1 0 5 6 6
13 1 17 -11 107 -12 107 -1 0 5 6 6 13 1 17 -11 107 -12 107 -1 0 5 6 6 13 1
17 -11 107 -12 107 -1 0 5 6 6 13 1 17 -11 107 -12 107 -1 0 5 6 6 13 1 17
-11 107 -12 107 -1 0 5 6 6 13 1 17 -11 107 -12 107 -1 0 5 6 6 13 1 17 -11
107 -12 107 -1 0 5 6 6 13 1 17 -11 107 -12 107 -1 0 5 6 6 13 1 17 -11 107
-12 107 -1 0 5 6 6 13 1 17 -11 107 -12 107 -1 0 5 6 6 13 1 18 -11 107 -12
107 0 0 6 5 6 13 0 6 -5 29 -9 49 -8 21 1 35 -1 32 -4 -3 -3 -1100 -6 -2437
-7 -1338 -1 -2465 -2 -2505 -4 -69 -3 -94 -11 -73 -24 5 -4 12 -2 16 4 9 14
28 13 23 -2 -2 -6 -20 -13 -39 -14 -58 -5 -84 -11 -81 -17 1 -4 2 -10 2 -13 0
-4 6 -1 13 5 10 8 14 7 14 -3 0 -7 -7 -13 -16 -13 -50 0 -61 -4 -61 -21 0 -10
-8 -19 -17 -20 -38 -4 -54 -9 -53 -15 0 -4 0 -10 0 -13 0 -4 6 -1 13 5 10 8
14 7 14 -3 0 -7 -7 -13 -16 -13 -53 0 -60 -3 -56 -23 3 -16 -2 -20 -21 -20
-24 0 -27 -6 -27 -61 0 -9 -6 -16 -13 -16 -10 0 -11 4 -3 13 7 8 7 14 -1 19
-5 3 -10 5 -11 3 -4 -19 -10 -46 -11 -61 -1 -10 -8 -15 -16 -12 -15 5 -24 -13
-26 -54 0 -15 -6 -28 -13 -28 -9 0 -10 4 -2 13 7 8 7 14 -1 19 -5 3 -10 5 -11
3 -6 -23 -9 -53 -11 -99 -2 -35 -7 -56 -15 -56 -7 0 -9 5 -6 11 4 8 2 8 -6 0
-9 -9 -12 -1039 -12 -4570 1 -2507 3 -4568 5 -4579 3 -11 5 -22 5 -24 1 -3 7
1 13 7 10 10 10 15 -2 23 -13 9 -13 10 0 7 10 -3 15 -21 17 -58 3 -49 16 -75
34 -65 3 3 6 -3 6 -13 0 -53 4 -62 24 -62 14 0 19 -5 16 -15 -4 -8 -2 -17 3
-20 5 -3 7 -14 5 -24 -2 -10 2 -18 9 -18 7 0 13 6 13 13 0 7 -5 10 -10 7 -6
-4 -7 -1 -3 6 13 21 22 5 25 -43 1 -17 8 -26 24 -28 14 -2 21 -9 21 -21 -2
-16 16 -21 64 -20 13 1 16 -10 5 -20 -3 -4 -11 -2 -18 3 -8 7 -12 5 -12 -4 0
-8 8 -13 18 -11 10 2 21 0 24 -5 3 -5 13 -6 22 -3 9 4 14 2 10 -3 -10 -18 8
-33 42 -36 36 -3 48 -13 30 -24 -7 -4 -9 -3 -6 3 3 5 0 10 -7 10 -30 0 -9 -22
23 -25 20 -1 45 -4 56 -6 11 -3 23 -5 28 -5 14 -2 7 -18 -8 -18 -8 0 -12 3
-10 7 2 4 -2 7 -9 7 -7 0 -13 -5 -13 -11 0 -7 26 -13 61 -15 84 -5 6906 -5
6984 1 34 2 62 7 62 11 0 4 0 10 0 13 0 4 -6 1 -13 -5 -10 -8 -14 -7 -14 2 0
7 16 13 36 15 54 3 76 8 74 15 -2 4 -3 10 -3 13 0 4 -6 1 -13 -5 -10 -8 -14
-7 -14 2 0 7 15 13 35 14 34 2 56 19 46 35 -3 4 6 9 20 9 41 2 46 4 46 12 0 4
0 10 0 13 0 4 -6 1 -13 -5 -10 -8 -14 -7 -14 3 0 7 7 13 16 13 52 0 61 4 61
23 0 13 7 20 20 20 19 0 23 9 23 61 0 9 6 16 13 16 10 0 11 -4 3 -13 -7 -8 -7
-14 1 -19 5 -3 10 -5 11 -3 4 19 10 46 11 61 1 9 10 17 20 17 17 0 21 11 21
61 0 9 6 16 13 16 10 0 11 -4 3 -13 -7 -8 -7 -14 1 -19 5 -3 10 -5 11 -3 5 21
9 53 11 99 2 32 7 56 14 56 6 0 11 -6 11 -13 0 -7 -3 -11 -7 -9 -4 2 -7 -3 -7
-11 0 -20 20 -1 24 23 3 17 3 7087 0 7144 -1 20 -6 26 -21 25 -15 -1 -21 5
-20 20 1 16 -4 21 -20 20 -15 -1 -21 5 -20 20 1 16 -4 21 -20 20 -15 -1 -21 5
-20 20 1 16 -4 21 -20 20 -15 -1 -21 5 -20 20 1 16 -4 21 -20 20 -15 -1 -21 5
-20 20 1 16 -4 21 -20 20 -15 -1 -21 5 -20 20 1 16 -4 21 -20 20 -15 -1 -21 5
-20 20 1 16 -4 21 -20 20 -15 -1 -21 5 -20 20 1 16 -4 21 -20 20 -15 -1 -21 5
-20 20 1 16 -4 21 -20 20 -15 -1 -21 5 -20 20 1 16 -4 21 -20 20 -15 -1 -21 5
-20 20 1 16 -4 21 -20 20 -15 -1 -21 5 -20 20 1 16 -4 21 -20 20 -15 -1 -21 5
-20 20 1 16 -4 21 -20 20 -15 -1 -21 5 -20 20 1 16 -4 21 -20 20 -15 -1 -21 5
-20 20 1 16 -4 21 -20 20 -15 -1 -21 5 -20 20 1 16 -4 21 -20 20 -15 -1 -21 5
-20 20 1 16 -4 21 -20 20 -15 -1 -21 5 -20 20 1 16 -4 21 -20 20 -15 -1 -21 5
-20 20 1 16 -4 21 -20 20 -15 -1 -21 5 -20 20 1 16 -4 21 -20 20 -15 -1 -21 5
-20 20 1 16 -4 21 -20 20 -15 -1 -21 5 -20 20 1 16 -4 21 -20 20 -15 -1 -21 5
-20 20 1 16 -4 21 -20 20 -15 -1 -21 5 -20 20 1 16 -4 21 -20 20 -15 -1 -21 5
-20 20 1 16 -4 21 -20 20 -15 -1 -21 5 -20 20 1 16 -4 21 -20 20 -15 -1 -21 5
-20 20 1 16 -4 21 -20 20 -15 -1 -21 5 -20 20 1 16 -4 21 -20 20 -15 -1 -21 5
-20 20 1 16 -4 21 -20 20 -15 -1 -21 5 -20 20 1 16 -4 21 -20 20 -15 -1 -21 5
-20 20 1 16 -4 21 -20 20 -15 -1 -21 5 -20 20 1 16 -4 21 -20 20 -15 -1 -21 5
-20 20 1 16 -4 21 -20 20 -15 -1 -21 5 -20 20 1 16 -4 21 -20 20 -15 -1 -21 5
-20 20 1 16 -4 21 -20 20 -15 -1 -21 5 -20 20 1 16 -4 21 -20 20 -15 -1 -21 5
-20 20 1 16 -4 21 -20 20 -15 -1 -21 5 -20 20 1 16 -4 21 -20 20 -15 -1 -21 5
-20 20 1 16 -4 21 -20 20 -15 -1 -21 5 -20 20 1 16 -4 21 -20 20 -15 -1 -21 5
-20 20 1 16 -4 21 -20 20 -15 -1 -21 5 -20 20 1 16 -4 21 -20 20 -15 -1 -21 5
-20 20 1 16 -4 21 -20 20 -15 -1 -21 5 -20 20 1 16 -4 21 -20 20 -15 -1 -21 5
-20 20 1 16 -4 21 -20 20 -15 -1 -21 5 -20 20 1 16 -4 21 -20 20 -15 -1 -21 5
-20 20 1 16 -4 21 -20 20 -15 -1 -21 5 -20 20 1 16 -4 21 -20 20 -15 -1 -21 5
-20 20 1 16 -4 21 -20 20 -15 -1 -21 5 -20 20 1 16 -4 21 -20 20 -15 -1 -21 5
-20 20 1 16 -4 21 -20 20 -15 -1 -21 5 -20 20 1 16 -4 21 -20 20 -15 -1 -21 5
-20 20 1 16 -4 21 -20 20 -15 -1 -21 5 -20 20 1 16 -4 21 -20 20 -15 -1 -21 5
-20 20 1 16 -4 21 -20 20 -15 -1 -21 5 -20 20 1 16 -4 21 -20 20 -15 -1 -21 5
-20 20 1 16 -4 21 -20 20 -15 -1 -21 5 -20 20 1 16 -4 21 -20 20 -15 -1 -21 5
-20 20 1 16 -4 21 -20 20 -15 -1 -21 5 -20 20 1 16 -4 21 -20 20 -15 -1 -21 5
-20 20 1 16 -4 21 -20 20 -15 -1 -21 5 -20 20 1 16 -4 21 -20 20 -15 -1 -21 5
-20 19 1 20 -5 20 -2433 20 -1617 0 -2437 -3 -2443 -10z m4904 -56 c-3 -5 -10
-7 -15 -3 -5 3 -7 10 -3 15 3 5 10 7 15 3 5 -3 7 -10 3 -15z m40 -40 c-3 -5
-10 -7 -15 -3 -5 3 -7 10 -3 15 3 5 10 7 15 3 5 -3 7 -10 3 -15z m40 -40 c-3
-5 -10 -7 -15 -3 -5 3 -7 10 -3 15 3 5 10 7 15 3 5 -3 7 -10 3 -15z m40 -40
c-3 -5 -10 -7 -15 -3 -5 3 -7 10 -3 15 3 5 10 7 15 3 5 -3 7 -10 3 -15z m40
-40 c-3 -5 -10 -7 -15 -3 -5 3 -7 10 -3 15 3 5 10 7 15 3 5 -3 7 -10 3 -15z
m40 -40 c-3 -5 -10 -7 -15 -3 -5 3 -7 10 -3 15 3 5 10 7 15 3 5 -3 7 -10 3
-15z m40 -40 c-3 -5 -10 -7 -15 -3 -5 3 -7 10 -3 15 3 5 10 7 15 3 5 -3 7 -10
3 -15z m40 -40 c-3 -5 -10 -7 -15 -3 -5 3 -7 10 -3 15 3 5 10 7 15 3 5 -3 7
-10 3 -15z m40 -40 c-3 -5 -10 -7 -15 -3 -5 3 -7 10 -3 15 3 5 10 7 15 3 5 -3
7 -10 3 -15z m40 -40 c-3 -5 -10 -7 -15 -3 -5 3 -7 10 -3 15 3 5 10 7 15 3 5
-3 7 -10 3 -15z m40 -40 c-3 -5 -10 -7 -15 -3 -5 3 -7 10 -3 15 3 5 10 7 15 3
5 -3 7 -10 3 -15z m40 -40 c-3 -5 -10 -7 -15 -3 -5 3 -7 10 -3 15 3 5 10 7 15
3 5 -3 7 -10 3 -15z m40 -40 c-3 -5 -10 -7 -15 -3 -5 3 -7 10 -3 15 3 5 10 7
15 3 5 -3 7 -10 3 -15z m40 -40 c-3 -5 -10 -7 -15 -3 -5 3 -7 10 -3 15 3 5 10
7 15 3 5 -3 7 -10 3 -15z m40 -40 c-3 -5 -10 -7 -15 -3 -5 3 -7 10 -3 15 3 5
10 7 15 3 5 -3 7 -10 3 -15z m40 -40 c-3 -5 -10 -7 -15 -3 -5 3 -7 10 -3 15 3
5 10 7 15 3 5 -3 7 -10 3 -15z m40 -40 c-3 -5 -10 -7 -15 -3 -5 3 -7 10 -3 15
3 5 10 7 15 3 5 -3 7 -10 3 -15z m-4719 -19 c3 -6 -1 -7 -9 -4 -18 7 -21 14
-7 14 6 0 13 -4 16 -10z m100 -12 c-9 -6 -19 -7 -22 -4 -4 3 -1 6 6 6 7 0 9 4
6 10 -4 6 1 7 11 3 15 -6 15 -7 -1 -15z m480 0 c-9 -6 -19 -7 -22 -4 -4 3 -1
6 6 6 7 0 9 4 6 10 -4 6 1 7 11 3 15 -6 15 -7 -1 -15z m1120 0 c-9 -6 -19 -7
-22 -4 -4 3 -1 6 6 6 7 0 9 4 6 10 -4 6 1 7 11 3 15 -6 15 -7 -1 -15z m640 0
c-9 -6 -19 -7 -22 -4 -4 3 -1 6 6 6 7 0 9 4 6 10 -4 6 1 7 11 3 15 -6 15 -7
-1 -15z m880 0 c-9 -6 -19 -7 -22 -4 -4 3 -1 6 6 6 7 0 9 4 6 10 -4 6 1 7 11
3 15 -6 15 -7 -1 -15z m-2995 2 c0 -5 -4 -10 -10 -10 -5 0 -10 5 -10 10 0 6 5
10 10 10 6 0 10 -4 10 -10z m1120 0 c0 -5 -4 -10 -10 -10 -5 0 -10 5 -10 10 0
6 5 10 10 10 6 0 10 -4 10 -10z m480 0 c0 -5 -4 -10 -10 -10 -5 0 -10 5 -10
10 0 6 5 10 10 10 6 0 10 -4 10 -10z m160 0 c0 -5 -4 -10 -10 -10 -5 0 -10 5
-10 10 0 6 5 10 10 10 6 0 10 -4 10 -10z m480 0 c0 -5 -4 -10 -10 -10 -5 0
-10 5 -10 10 0 6 5 10 10 10 6 0 10 -4 10 -10z m2294 -11 c-3 -5 -10 -7 -15
-3 -5 3 -7 10 -3 15 3 5 10 7 15 3 5 -3 7 -10 3 -15z m-4379 -6 c50 1 93 6 97
12 5 6 8 5 8 -3 0 -15 221 -13 232 3 5 6 8 5 8 -3 0 -10 17 -13 73 -10 39 2
75 8 79 13 5 6 8 5 8 -3 0 -16 150 -13 150 3 0 6 4 4 9 -3 10 -16 141 -13 153
3 5 6 8 5 8 -3 0 -17 190 -15 190 2 0 7 3 7 8 -1 9 -15 184 -13 194 2 5 6 8 6
8 -2 0 -16 262 -16 272 1 5 8 8 7 8 -2 0 -17 150 -15 150 2 0 7 3 7 8 -1 9
-15 184 -13 194 2 5 6 8 6 8 -2 0 -16 270 -16 270 1 0 7 3 6 8 -2 10 -15 103
-13 114 3 5 6 8 5 8 -3 0 -10 17 -13 73 -10 39 2 75 8 79 13 5 6 8 5 8 -3 0
-16 150 -13 150 3 0 6 4 4 9 -3 10 -16 141 -13 153 3 5 6 8 5 8 -2 0 -10 22
-12 80 -11 44 1 82 -1 85 -3 2 -3 5 -445 5 -982 1 -538 5 -975 10 -972 5 3 10
-1 13 -7 3 -7 4 -3 4 9 -1 12 -5 19 -11 16 -5 -3 -6 -1 -2 6 15 23 23 0 25
-71 2 -66 13 -94 32 -83 3 3 6 -3 6 -13 0 -53 4 -62 23 -62 12 0 20 -6 19 -12
-5 -44 2 -68 21 -68 13 0 20 -7 20 -20 0 -18 4 -21 28 -19 4 0 10 -10 13 -23
3 -15 12 -22 22 -20 11 2 17 -4 17 -18 0 -13 7 -20 20 -20 11 0 19 -3 19 -7
-4 -23 3 -34 19 -31 11 2 18 -4 20 -19 3 -18 10 -23 33 -24 48 -2 52 -3 57
-18 3 -9 0 -11 -9 -6 -10 6 -11 5 -3 -4 6 -6 34 -13 63 -13 29 -1 57 -8 62
-14 12 -14 -7 -14 -29 0 -7 4 -16 5 -19 2 -4 -3 -1 -6 6 -6 7 0 10 -4 7 -8 -2
-4 5 -9 17 -10 12 -1 479 -3 1037 -5 l1015 -2 2 -2836 c2 -2290 0 -2836 -10
-2836 -7 0 -13 11 -13 23 0 12 3 21 7 18 4 -2 6 4 5 13 -4 28 -20 11 -22 -22
-5 -103 -8 -115 -26 -115 -10 0 -17 -3 -17 -7 1 -5 1 -23 0 -40 -1 -26 -5 -33
-20 -33 -14 0 -19 -6 -16 -20 2 -11 0 -20 -5 -20 -5 0 -7 -8 -5 -18 2 -11 -3
-19 -11 -19 -10 0 -11 4 -3 14 6 7 9 13 5 13 -3 0 -9 0 -13 0 -8 0 -10 -5 -12
-45 0 -14 -4 -24 -8 -24 -23 4 -33 -3 -33 -21 0 -13 -7 -20 -20 -20 -13 0 -20
-7 -20 -20 0 -13 -7 -20 -20 -20 -13 0 -20 -7 -20 -20 0 -11 -3 -19 -7 -19 -5
1 -23 1 -40 0 -26 -1 -33 -5 -33 -21 0 -14 -7 -20 -25 -21 -14 -1 -29 -3 -35
-4 -5 -1 -13 -3 -16 -4 -3 0 -2 -6 1 -11 5 -8 11 -8 19 -1 9 8 13 7 13 -2 0
-7 -10 -13 -21 -14 -87 -3 -128 -8 -137 -19 -7 -9 -6 -12 5 -10 9 1 19 5 22 9
12 11 26 8 22 -5 -3 -7 -22 -13 -44 -14 -21 -1 -81 -3 -131 -5 -53 -2 -93 -8
-93 -14 0 -5 -4 -4 -9 3 -10 16 -141 13 -153 -3 -5 -6 -8 -5 -8 3 0 10 -17 13
-72 10 -40 -2 -76 -7 -80 -13 -5 -6 -8 -5 -8 3 0 16 -150 13 -150 -3 0 -5 -4
-4 -8 3 -10 15 -223 13 -234 -3 -5 -6 -8 -6 -8 2 0 16 -270 16 -270 -1 0 -8
-3 -7 -8 1 -9 15 -184 13 -194 -2 -5 -6 -8 -6 -8 2 0 16 -270 16 -270 -1 0 -8
-3 -7 -8 1 -9 15 -184 13 -194 -2 -5 -6 -8 -5 -8 3 0 15 -221 13 -232 -3 -5
-6 -8 -5 -8 3 0 10 -17 13 -72 10 -40 -2 -76 -7 -80 -13 -5 -6 -8 -5 -8 3 0
16 -150 13 -150 -3 0 -5 -4 -4 -9 3 -10 16 -141 13 -153 -3 -5 -6 -8 -5 -8 3
0 17 -190 15 -190 -2 0 -7 -3 -7 -8 1 -9 15 -184 13 -194 -2 -5 -6 -8 -6 -8 2
0 16 -262 16 -272 -1 -5 -8 -8 -7 -8 2 0 17 -150 15 -150 -2 0 -7 -3 -7 -8 1
-9 15 -184 13 -194 -2 -5 -6 -8 -6 -8 2 0 16 -270 16 -270 -1 0 -7 -3 -6 -8 2
-10 15 -103 13 -114 -3 -5 -6 -8 -5 -8 3 0 16 -150 13 -150 -3 0 -5 -4 -4 -9
3 -10 16 -141 13 -153 -3 -5 -6 -8 -5 -8 3 0 16 -150 13 -150 -3 0 -5 -4 -4
-8 3 -10 15 -223 13 -234 -3 -5 -6 -8 -6 -8 2 0 16 -270 16 -270 -1 0 -8 -2
-8 -8 1 -9 15 -192 13 -192 -2 0 -5 -4 -5 -8 2 -5 8 -42 13 -105 14 -93 1
-121 9 -96 25 7 4 9 3 6 -2 -3 -6 4 -10 16 -11 12 0 16 1 9 4 -6 3 -10 8 -8
11 2 4 -21 8 -52 9 -47 3 -73 6 -100 12 -2 1 0 6 3 11 5 8 11 8 19 1 9 -8 13
-7 13 3 0 7 -7 13 -16 13 -57 0 -69 4 -67 19 0 9 -6 18 -14 20 -8 1 -25 4 -37
6 -27 5 -42 18 -22 18 10 1 9 5 -5 15 -10 8 -23 12 -27 9 -5 -3 -9 4 -9 15 0
15 -6 21 -24 21 -19 0 -23 4 -19 20 4 15 0 20 -14 20 -19 0 -21 5 -25 54 -1
16 -8 23 -23 22 -15 -1 -19 4 -17 22 3 17 -2 22 -17 22 -12 0 -20 3 -20 8 1 4
1 22 0 40 -1 24 -6 32 -19 32 -19 0 -22 13 -25 116 -1 24 -6 41 -13 41 -12 0
-13 -13 -3 -32 8 -16 5 -35 -6 -32 -7 1 -11 1289 -12 3833 -2 3106 0 3831 10
3831 7 0 13 -11 13 -23 0 -12 -3 -21 -6 -19 -3 2 -6 -7 -6 -21 0 -16 3 -21 10
-14 5 5 11 40 13 77 4 83 8 94 28 86 12 -4 16 -1 15 13 -5 47 0 64 20 64 19 0
23 9 23 61 0 9 6 16 13 16 10 0 11 -4 3 -14 -6 -7 -9 -13 -5 -13 3 0 9 0 14 0
7 0 9 5 11 45 1 18 7 25 21 25 13 0 20 7 20 20 0 13 7 20 20 20 13 0 20 7 20
19 0 13 8 21 23 23 15 2 21 9 19 21 -2 9 1 17 5 16 4 -1 23 -1 41 0 26 1 32 5
32 24 0 18 5 22 32 21 38 -2 51 4 42 17 -3 6 -12 5 -22 -3 -10 -8 -13 -8 -9
-1 4 6 1 13 -5 16 -7 2 1 4 17 5 86 1 113 6 110 22 -3 18 -6 18 263 21 134 1
192 5 192 13 0 7 3 7 8 -1 5 -8 37 -11 97 -10z m4419 -34 c-3 -5 -10 -7 -15
-3 -5 3 -7 10 -3 15 3 5 10 7 15 3 5 -3 7 -10 3 -15z m40 -40 c-3 -5 -10 -7
-15 -3 -5 3 -7 10 -3 15 3 5 10 7 15 3 5 -3 7 -10 3 -15z m40 -40 c-3 -5 -10
-7 -15 -3 -5 3 -7 10 -3 15 3 5 10 7 15 3 5 -3 7 -10 3 -15z m40 -40 c-3 -5
-10 -7 -15 -3 -5 3 -7 10 -3 15 3 5 10 7 15 3 5 -3 7 -10 3 -15z m40 -40 c-3
-5 -10 -7 -15 -3 -5 3 -7 10 -3 15 3 5 10 7 15 3 5 -3 7 -10 3 -15z m40 -40
c-3 -5 -10 -7 -15 -3 -5 3 -7 10 -3 15 3 5 10 7 15 3 5 -3 7 -10 3 -15z m40
-40 c-3 -5 -10 -7 -15 -3 -5 3 -7 10 -3 15 3 5 10 7 15 3 5 -3 7 -10 3 -15z
m40 -40 c-3 -5 -10 -7 -15 -3 -5 3 -7 10 -3 15 3 5 10 7 15 3 5 -3 7 -10 3
-15z m40 -40 c-3 -5 -10 -7 -15 -3 -5 3 -7 10 -3 15 3 5 10 7 15 3 5 -3 7 -10
3 -15z m40 -40 c-3 -5 -10 -7 -15 -3 -5 3 -7 10 -3 15 3 5 10 7 15 3 5 -3 7
-10 3 -15z m40 -40 c-3 -5 -10 -7 -15 -3 -5 3 -7 10 -3 15 3 5 10 7 15 3 5 -3
7 -10 3 -15z m40 -40 c-3 -5 -10 -7 -15 -3 -5 3 -7 10 -3 15 3 5 10 7 15 3 5
-3 7 -10 3 -15z m40 -40 c-3 -5 -10 -7 -15 -3 -5 3 -7 10 -3 15 3 5 10 7 15 3
5 -3 7 -10 3 -15z m40 -40 c-3 -5 -10 -7 -15 -3 -5 3 -7 10 -3 15 3 5 10 7 15
3 5 -3 7 -10 3 -15z m40 -40 c-3 -5 -10 -7 -15 -3 -5 3 -7 10 -3 15 3 5 10 7
15 3 5 -3 7 -10 3 -15z m40 -40 c-3 -5 -10 -7 -15 -3 -5 3 -7 10 -3 15 3 5 10
7 15 3 5 -3 7 -10 3 -15z m40 -40 c-3 -5 -10 -7 -15 -3 -5 3 -7 10 -3 15 3 5
10 7 15 3 5 -3 7 -10 3 -15z m40 -40 c-3 -5 -10 -7 -15 -3 -5 3 -7 10 -3 15 3
5 10 7 15 3 5 -3 7 -10 3 -15z m40 -40 c-3 -5 -10 -7 -15 -3 -5 3 -7 10 -3 15
3 5 10 7 15 3 5 -3 7 -10 3 -15z m40 -40 c-3 -5 -10 -7 -15 -3 -5 3 -7 10 -3
15 3 5 10 7 15 3 5 -3 7 -10 3 -15z m40 -40 c-3 -5 -10 -7 -15 -3 -5 3 -7 10
-3 15 3 5 10 7 15 3 5 -3 7 -10 3 -15z m40 -40 c-3 -5 -10 -7 -15 -3 -5 3 -7
10 -3 15 3 5 10 7 15 3 5 -3 7 -10 3 -15z m40 -40 c-3 -5 -10 -7 -15 -3 -5 3
-7 10 -3 15 3 5 10 7 15 3 5 -3 7 -10 3 -15z m40 -40 c-3 -5 -10 -7 -15 -3 -5
3 -7 10 -3 15 3 5 10 7 15 3 5 -3 7 -10 3 -15z m40 -40 c-3 -5 -10 -7 -15 -3
-5 3 -7 10 -3 15 3 5 10 7 15 3 5 -3 7 -10 3 -15z m40 -40 c-3 -5 -10 -7 -15
-3 -5 3 -7 10 -3 15 3 5 10 7 15 3 5 -3 7 -10 3 -15z m40 -40 c-3 -5 -10 -7
-15 -3 -5 3 -7 10 -3 15 3 5 10 7 15 3 5 -3 7 -10 3 -15z m40 -40 c-3 -5 -10
-7 -15 -3 -5 3 -7 10 -3 15 3 5 10 7 15 3 5 -3 7 -10 3 -15z m40 -40 c-3 -5
-10 -7 -15 -3 -5 3 -7 10 -3 15 3 5 10 7 15 3 5 -3 7 -10 3 -15z m40 -40 c-3
-5 -10 -7 -15 -3 -5 3 -7 10 -3 15 3 5 10 7 15 3 5 -3 7 -10 3 -15z m40 -40
c-3 -5 -10 -7 -15 -3 -5 3 -7 10 -3 15 3 5 10 7 15 3 5 -3 7 -10 3 -15z m40
-40 c-3 -5 -10 -7 -15 -3 -5 3 -7 10 -3 15 3 5 10 7 15 3 5 -3 7 -10 3 -15z
m40 -40 c-3 -5 -10 -7 -15 -3 -5 3 -7 10 -3 15 3 5 10 7 15 3 5 -3 7 -10 3
-15z m40 -40 c-3 -5 -10 -7 -15 -3 -5 3 -7 10 -3 15 3 5 10 7 15 3 5 -3 7 -10
3 -15z m40 -40 c-3 -5 -10 -7 -15 -3 -5 3 -7 10 -3 15 3 5 10 7 15 3 5 -3 7
-10 3 -15z m40 -40 c-3 -5 -10 -7 -15 -3 -5 3 -7 10 -3 15 3 5 10 7 15 3 5 -3
7 -10 3 -15z m40 -40 c-3 -5 -10 -7 -15 -3 -5 3 -7 10 -3 15 3 5 10 7 15 3 5
-3 7 -10 3 -15z m40 -40 c-3 -5 -10 -7 -15 -3 -5 3 -7 10 -3 15 3 5 10 7 15 3
5 -3 7 -10 3 -15z m40 -40 c-3 -5 -10 -7 -15 -3 -5 3 -7 10 -3 15 3 5 10 7 15
3 5 -3 7 -10 3 -15z m40 -40 c-3 -5 -10 -7 -15 -3 -5 3 -7 10 -3 15 3 5 10 7
15 3 5 -3 7 -10 3 -15z m40 -40 c-3 -5 -10 -7 -15 -3 -5 3 -7 10 -3 15 3 5 10
7 15 3 5 -3 7 -10 3 -15z m40 -40 c-3 -5 -10 -7 -15 -3 -5 3 -7 10 -3 15 3 5
10 7 15 3 5 -3 7 -10 3 -15z m40 -40 c-3 -5 -10 -7 -15 -3 -5 3 -7 10 -3 15 3
5 10 7 15 3 5 -3 7 -10 3 -15z m40 -40 c-3 -5 -10 -7 -15 -3 -5 3 -7 10 -3 15
3 5 10 7 15 3 5 -3 7 -10 3 -15z m40 -40 c-3 -5 -10 -7 -15 -3 -5 3 -7 10 -3
15 3 5 10 7 15 3 5 -3 7 -10 3 -15z m-7120 -6640 c-3 -5 -10 -7 -15 -3 -5 3
-7 10 -3 15 3 5 10 7 15 3 5 -3 7 -10 3 -15z m866 -309 c0 -5 -4 -10 -10 -10
-5 0 -10 5 -10 10 0 6 5 10 10 10 6 0 10 -4 10 -10z m122 3 c-6 -2 -10 -9 -7
-14 4 -5 -1 -6 -10 -2 -13 5 -14 7 -3 14 7 5 18 8 23 8 6 0 4 -3 -3 -6z m240
0 c-6 -2 -10 -9 -7 -14 4 -5 -1 -6 -10 -2 -13 5 -14 7 -3 14 7 5 18 8 23 8 6
0 4 -3 -3 -6z m758 -3 c0 -5 -4 -10 -10 -10 -5 0 -10 5 -10 10 0 6 5 10 10 10
6 0 10 -4 10 -10z m122 3 c-6 -2 -10 -9 -7 -14 4 -5 -1 -6 -10 -2 -13 5 -14 7
-3 14 7 5 18 8 23 8 6 0 4 -3 -3 -6z m358 -3 c0 -5 -4 -10 -10 -10 -5 0 -10 5
-10 10 0 6 5 10 10 10 6 0 10 -4 10 -10z m160 0 c0 -5 -4 -10 -10 -10 -5 0
-10 5 -10 10 0 6 5 10 10 10 6 0 10 -4 10 -10z m122 3 c-6 -2 -10 -9 -7 -14 4
-5 -1 -6 -10 -2 -13 5 -14 7 -3 14 7 5 18 8 23 8 6 0 4 -3 -3 -6z m358 -3 c0
-5 -4 -10 -10 -10 -5 0 -10 5 -10 10 0 6 5 10 10 10 6 0 10 -4 10 -10z m762 3
c-6 -2 -10 -9 -7 -14 4 -5 -1 -6 -10 -2 -13 5 -14 7 -3 14 7 5 18 8 23 8 6 0
4 -3 -3 -6z m358 -3 c0 -5 -4 -10 -10 -10 -5 0 -10 5 -10 10 0 6 5 10 10 10 6
0 10 -4 10 -10z m122 3 c-6 -2 -10 -9 -7 -14 4 -5 -1 -6 -10 -2 -13 5 -14 7
-3 14 7 5 18 8 23 8 6 0 4 -3 -3 -6z m358 -3 c0 -5 -4 -10 -10 -10 -5 0 -10 5
-10 10 0 6 5 10 10 10 6 0 10 -4 10 -10z m122 3 c-6 -2 -10 -9 -7 -14 4 -5 -1
-6 -10 -2 -13 5 -14 7 -3 14 7 5 18 8 23 8 6 0 4 -3 -3 -6z m240 0 c-6 -2 -10
-9 -7 -14 4 -5 -1 -6 -10 -2 -13 5 -14 7 -3 14 7 5 18 8 23 8 6 0 4 -3 -3 -6z"/>
<path d="M2386 9461 c-4 -5 -2 -12 3 -15 5 -4 12 -2 15 3 4 5 2 12 -3 15 -5 4
-12 2 -15 -3z"/>
<path d="M5881 7383 c-1 -17 16 -25 25 -12 4 7 3 9 -4 5 -5 -3 -13 0 -15 6 -4
9 -6 10 -6 1z"/>
<path d="M6480 6942 c6 -2 8 -7 6 -10 -2 -4 424 -7 948 -7 629 0 953 3 953 10
0 7 -326 10 -959 10 -527 0 -954 -1 -948 -3z"/>
<path d="M2887 6587 c2 -4 9 -5 14 -2 5 4 9 3 9 -2 0 -4 96 -8 213 -8 136 0
211 4 209 10 -1 6 -85 10 -226 10 -123 0 -222 -3 -219 -8z"/>
<path d="M3353 6585 c0 -6 60 -10 163 -10 89 0 160 3 158 7 -3 5 0 8 5 8 6 0
11 -4 11 -8 0 -5 7 -9 15 -9 8 0 12 4 9 8 -2 4 5 7 16 6 11 -1 20 -4 20 -7 0
-3 20 -6 44 -6 25 0 42 4 40 8 -2 4 5 6 16 5 11 -1 20 -4 20 -7 0 -3 95 -5
210 -5 133 0 210 4 210 10 0 7 -163 10 -468 10 -310 0 -469 -3 -469 -10z"/>
<path d="M4313 6585 c0 -6 60 -10 163 -10 89 0 160 3 158 7 -3 5 0 8 5 8 6 0
11 -4 11 -8 0 -5 7 -9 15 -9 8 0 12 4 9 8 -2 4 5 7 16 6 11 -1 20 -4 20 -7 0
-3 20 -6 43 -6 24 0 44 5 44 11 0 7 -83 10 -242 10 -157 0 -242 -3 -242 -10z"/>
<path d="M2874 6572 c5 -9 -10 -12 -53 -12 -49 0 -59 -3 -55 -15 7 -16 -5 -22
-49 -28 -15 -2 -27 -6 -27 -10 0 -4 0 -10 0 -13 0 -4 6 -1 13 5 10 8 14 7 14
-3 0 -7 -10 -13 -21 -12 -15 1 -21 -5 -20 -20 1 -11 -5 -21 -12 -21 -10 0 -11
4 -3 13 7 8 7 14 -1 19 -5 3 -10 5 -11 3 -4 -19 -10 -46 -11 -60 -1 -10 -10
-18 -20 -18 -13 0 -18 -10 -20 -42 -2 -32 -7 -43 -19 -42 -14 1 -16 -12 -17
-77 -1 -55 3 -79 11 -79 9 0 9 -2 1 -8 -15 -9 -13 -69 2 -69 6 0 11 6 11 13 0
7 -4 11 -9 8 -13 -8 -9 2 5 14 12 10 16 -10 20 -94 1 -22 24 -30 24 -8 0 7 -5
10 -10 7 -6 -4 -7 -1 -3 6 13 20 25 -3 29 -51 1 -10 9 -18 19 -18 11 0 18 -7
18 -20 0 -14 7 -20 25 -21 14 -1 30 -2 35 -3 11 -1 12 -18 3 -26 -4 -3 -3 0 0
6 3 6 0 11 -7 11 -30 0 -9 -22 23 -25 71 -5 93 -13 70 -28 -7 -4 -10 -3 -6 3
3 5 0 10 -7 10 -7 0 -13 -6 -13 -13 0 -11 196 -13 1023 -14 979 0 1023 1 1019
18 -2 13 4 18 23 19 88 2 90 3 88 20 0 12 7 19 22 21 14 2 22 10 22 23 0 12 7
19 20 19 13 0 20 7 20 20 0 12 7 20 18 20 12 0 18 9 20 36 3 44 10 57 28 50
11 -4 13 19 12 133 -1 99 -4 138 -13 138 -6 0 -12 -6 -12 -13 0 -7 5 -10 10
-7 6 4 7 1 3 -6 -15 -23 -23 -1 -28 70 -3 32 -25 53 -25 23 0 -7 5 -10 10 -7
6 4 7 1 3 -6 -9 -14 -18 -8 -23 14 -2 8 -4 22 -6 30 -4 20 -9 23 -40 27 -27 4
-35 14 -21 26 4 4 4 2 1 -4 -3 -6 0 -11 7 -11 22 0 14 23 -8 24 -54 3 -79 18
-56 33 20 13 79 12 -1040 14 -553 1 -991 5 -999 10 -10 6 -12 5 -7 -2z"/>
<path d="M4865 5861 c-3 -5 -2 -12 3 -15 5 -3 9 1 9 9 0 17 -3 19 -12 6z"/>
<path d="M2805 5110 c3 -5 1 -10 -5 -10 -6 0 -8 -5 -5 -11 4 -6 1 -10 -6 -8
-8 1 -28 1 -46 0 -27 -1 -30 -4 -25 -23 4 -18 2 -20 -16 -16 -18 5 -22 2 -22
-18 0 -17 -6 -24 -20 -24 -13 0 -20 -7 -20 -20 0 -13 -7 -20 -18 -20 -10 0
-18 -8 -19 -17 -1 -10 -3 -40 -4 -67 -2 -26 -5 -43 -7 -37 -2 6 -9 8 -14 5 -7
-5 -8 -2 -2 7 14 23 14 42 0 30 -6 -5 -13 -41 -14 -81 -2 -60 0 -75 15 -86 12
-9 13 -12 3 -9 -12 4 -15 -4 -16 -37 0 -24 1 -37 3 -30 3 6 10 9 16 5 9 -5 9
-3 0 8 -8 9 -9 20 -3 29 6 8 10 11 11 5 0 -5 3 -28 6 -50 3 -22 6 -48 6 -57 1
-17 10 -22 30 -19 4 1 7 -7 5 -16 -2 -12 4 -19 20 -21 12 -2 20 -7 17 -12 -8
-12 25 -41 38 -33 6 4 8 0 4 -10 -8 -20 1 -26 42 -29 32 -2 65 -25 36 -25 -8
0 -12 3 -10 7 2 4 -2 7 -9 7 -25 0 -12 -23 13 -24 34 -2 4639 -2 4667 0 22 1
29 24 8 24 -7 0 -10 -5 -7 -10 3 -6 1 -7 -5 -3 -16 10 -15 27 1 25 44 -5 67 2
67 22 0 11 4 18 9 14 13 -8 43 24 34 38 -4 6 0 8 9 4 20 -7 38 11 31 31 -4 9
-2 13 3 9 23 -14 36 12 37 76 1 36 5 68 9 72 4 4 4 -4 1 -17 -4 -18 -3 -20 6
-8 6 8 11 10 11 4 0 -5 -5 -15 -10 -20 -8 -8 -7 -14 3 -22 12 -10 14 7 13 110
-1 99 -4 122 -16 125 -9 3 -11 1 -5 -4 15 -12 16 -30 1 -30 -8 0 -13 15 -14
40 -1 22 -8 47 -14 55 -10 13 -10 14 0 8 6 -4 12 -2 12 3 0 6 -9 11 -19 11
-13 0 -21 8 -23 23 -2 14 -9 21 -20 19 -9 -1 -19 2 -23 8 -3 5 0 10 7 10 8 1
6 6 -6 15 -10 8 -23 12 -27 9 -5 -3 -9 4 -9 15 0 18 -6 21 -39 21 -22 0 -43 5
-47 12 -4 7 -3 8 4 4 7 -4 10 -2 6 7 -7 20 -36 18 -29 -2 4 -13 2 -12 -9 2
-12 16 -134 17 -2310 17 -1529 0 -2295 -3 -2291 -10z m33 -25 c-3 -3 -9 2 -12
12 -6 14 -5 15 5 6 7 -7 10 -15 7 -18z"/>
<path d="M2850 3660 c7 -13 5 -17 -8 -17 -68 0 -82 -4 -82 -21 0 -10 -8 -19
-17 -20 -38 -4 -54 -9 -53 -15 0 -4 0 -10 0 -13 0 -4 6 -1 13 5 10 8 14 7 14
-3 0 -7 -7 -13 -16 -13 -45 0 -62 -4 -57 -12 10 -16 -5 -40 -23 -36 -11 2 -17
-4 -19 -18 0 -12 -2 -42 -4 -66 -1 -24 -4 -39 -6 -32 -2 6 -9 8 -15 4 -7 -4
-7 -1 1 9 8 10 9 19 3 22 -17 11 -19 -5 -19 -134 0 -129 2 -145 19 -134 6 4 6
10 0 18 -8 9 -7 13 2 13 12 0 18 -28 20 -93 1 -22 24 -30 24 -8 0 7 -5 10 -10
7 -6 -4 -7 -1 -3 6 13 20 25 -3 29 -51 1 -10 9 -18 19 -18 11 0 18 -7 18 -20
0 -19 10 -23 62 -23 10 0 16 -3 13 -6 -11 -18 17 -32 74 -35 67 -5 84 -10 51
-19 -11 -3 -18 -2 -15 2 2 4 -2 8 -9 8 -7 0 -13 -5 -13 -12 0 -14 169 -15 179
-1 5 7 8 7 8 -1 0 -16 262 -16 272 1 5 8 8 7 8 -2 0 -17 150 -15 150 2 0 7 4
6 8 -2 10 -15 103 -13 114 3 5 6 8 5 8 -2 0 -16 230 -14 230 2 0 6 4 4 8 -3
10 -15 223 -13 234 3 5 6 8 5 8 -3 0 -17 190 -15 190 2 0 7 4 6 9 -2 10 -17
151 -15 151 2 0 7 3 7 8 -1 9 -15 184 -13 194 2 5 6 8 6 8 -2 0 -16 301 -14
312 2 5 6 8 6 8 -2 0 -16 230 -14 230 2 0 6 4 4 8 -2 10 -16 232 -14 232 2 0
6 4 4 8 -3 10 -15 223 -13 234 3 5 6 8 5 8 -3 0 -16 150 -13 150 3 0 6 4 4 8
-2 10 -16 232 -14 232 2 0 6 4 4 8 -3 10 -15 223 -13 234 3 5 6 8 5 8 -3 0
-16 150 -13 150 3 0 6 4 4 8 -2 10 -16 232 -14 232 2 0 6 4 4 8 -3 10 -15 223
-13 234 3 5 6 8 5 8 -3 0 -16 150 -13 150 3 0 6 4 4 8 -2 10 -16 232 -14 232
2 0 6 3 6 8 -1 4 -6 19 -10 34 -10 21 0 25 3 16 13 -12 14 -22 18 -14 5 3 -5
-1 -9 -8 -9 -7 0 -13 5 -13 11 0 7 24 13 56 14 31 2 65 4 77 5 22 1 30 24 8
24 -7 0 -10 -5 -7 -10 3 -6 1 -7 -5 -3 -16 10 -15 27 1 25 43 -5 66 2 69 24 2
14 9 21 21 21 15 -2 23 27 19 67 -1 3 6 6 13 6 11 0 12 -4 4 -13 -7 -8 -7 -14
1 -19 5 -3 10 -5 11 -3 5 23 9 50 10 81 1 20 6 37 11 37 5 0 6 6 2 13 -4 6 -3
8 1 4 11 -10 16 -39 6 -32 -4 2 -8 -2 -8 -9 0 -7 6 -13 12 -13 9 0 12 37 11
135 -1 111 -4 136 -16 139 -9 3 -11 1 -5 -4 15 -12 16 -30 1 -30 -13 0 -15 8
-18 80 -1 31 -25 50 -25 21 0 -7 4 -11 9 -8 4 3 8 0 8 -6 0 -27 -24 -1 -28 31
-5 41 -1 38 -41 41 -36 3 -48 13 -30 24 7 4 9 3 6 -3 -3 -5 0 -10 7 -10 23 0
13 23 -11 25 -48 4 -53 6 -53 25 0 14 -5 18 -20 14 -11 -3 -20 -2 -20 2 0 4
-15 6 -32 6 -39 -2 -51 3 -42 16 4 6 10 6 18 0 9 -8 13 -7 13 2 0 10 -46 13
-214 14 -163 0 -213 -2 -210 -12 3 -6 -1 -12 -8 -12 -8 0 -11 7 -7 16 5 14 4
14 -13 1 -10 -8 -16 -10 -12 -4 5 8 -162 11 -619 11 -476 0 -624 -3 -620 -12
2 -6 -2 -12 -9 -12 -8 0 -11 7 -7 16 5 14 4 14 -13 1 -10 -8 -16 -10 -12 -4 5
8 -118 11 -459 11 -352 0 -464 -3 -460 -12 2 -6 -2 -12 -9 -12 -8 0 -11 7 -7
16 5 14 4 14 -13 1 -10 -8 -16 -10 -12 -4 5 8 -118 11 -459 11 -352 0 -464 -3
-460 -12 2 -6 -2 -12 -9 -12 -8 0 -11 7 -7 16 5 14 4 14 -13 1 -10 -8 -16 -10
-12 -4 5 9 -112 11 -443 11 -419 0 -448 -2 -440 -17z m40 -1 c0 -15 -18 -19
-23 -6 -3 8 1 14 9 14 8 0 14 -4 14 -8z m475 1 c-3 -5 -12 -10 -18 -10 -7 0
-6 4 3 10 19 12 23 12 15 0z m167 3 c-6 -2 -10 -9 -7 -14 4 -5 -1 -6 -10 -2
-13 5 -14 7 -3 14 7 5 18 8 23 8 6 0 4 -3 -3 -6z m192 -9 c3 -8 2 -12 -4 -9
-6 3 -10 10 -10 16 0 14 7 11 14 -7z m126 6 c0 -5 -5 -10 -11 -10 -5 0 -7 5
-4 10 3 6 8 10 11 10 2 0 4 -4 4 -10z m475 0 c-3 -5 -12 -10 -18 -10 -7 0 -6
4 3 10 19 12 23 12 15 0z m167 3 c-6 -2 -10 -9 -7 -14 4 -5 -1 -6 -10 -2 -13
5 -14 7 -3 14 7 5 18 8 23 8 6 0 4 -3 -3 -6z m192 -9 c3 -8 2 -12 -4 -9 -6 3
-10 10 -10 16 0 14 7 11 14 -7z m126 6 c0 -5 -5 -10 -11 -10 -5 0 -7 5 -4 10
3 6 8 10 11 10 2 0 4 -4 4 -10z m475 0 c-3 -5 -12 -10 -18 -10 -7 0 -6 4 3 10
19 12 23 12 15 0z m167 3 c-6 -2 -10 -9 -7 -14 4 -5 -1 -6 -10 -2 -13 5 -14 7
-3 14 7 5 18 8 23 8 6 0 4 -3 -3 -6z m192 -9 c3 -8 2 -12 -4 -9 -6 3 -10 10
-10 16 0 14 7 11 14 -7z m126 6 c0 -5 -5 -10 -11 -10 -5 0 -7 5 -4 10 3 6 8
10 11 10 2 0 4 -4 4 -10z m475 0 c-3 -5 -12 -10 -18 -10 -7 0 -6 4 3 10 19 12
23 12 15 0z m320 0 c-3 -5 -12 -10 -18 -10 -7 0 -6 4 3 10 19 12 23 12 15 0z
m167 3 c-6 -2 -10 -9 -7 -14 4 -5 -1 -6 -10 -2 -13 5 -14 7 -3 14 7 5 18 8 23
8 6 0 4 -3 -3 -6z m192 -9 c3 -8 2 -12 -4 -9 -6 3 -10 10 -10 16 0 14 7 11 14
-7z m126 6 c0 -5 -5 -10 -11 -10 -5 0 -7 5 -4 10 3 6 8 10 11 10 2 0 4 -4 4
-10z m-4413 -176 c-9 -9 -28 6 -21 18 4 6 10 6 17 -1 6 -6 8 -13 4 -17z m488
-546 c-9 -6 -19 -7 -22 -4 -4 3 -1 6 6 6 7 0 9 4 6 10 -4 6 1 7 11 3 15 -6 15
-7 -1 -15z m560 0 c-9 -6 -19 -7 -22 -4 -4 3 -1 6 6 6 7 0 9 4 6 10 -4 6 1 7
11 3 15 -6 15 -7 -1 -15z m240 0 c-9 -6 -19 -7 -22 -4 -4 3 -1 6 6 6 7 0 9 4
6 10 -4 6 1 7 11 3 15 -6 15 -7 -1 -15z m800 0 c-9 -6 -19 -7 -22 -4 -4 3 -1
6 6 6 7 0 9 4 6 10 -4 6 1 7 11 3 15 -6 15 -7 -1 -15z m320 0 c-9 -6 -19 -7
-22 -4 -4 3 -1 6 6 6 7 0 9 4 6 10 -4 6 1 7 11 3 15 -6 15 -7 -1 -15z m240 0
c-9 -6 -19 -7 -22 -4 -4 3 -1 6 6 6 7 0 9 4 6 10 -4 6 1 7 11 3 15 -6 15 -7
-1 -15z m240 0 c-9 -6 -19 -7 -22 -4 -4 3 -1 6 6 6 7 0 9 4 6 10 -4 6 1 7 11
3 15 -6 15 -7 -1 -15z m400 0 c-9 -6 -19 -7 -22 -4 -4 3 -1 6 6 6 7 0 9 4 6
10 -4 6 1 7 11 3 15 -6 15 -7 -1 -15z m240 0 c-9 -6 -19 -7 -22 -4 -4 3 -1 6
6 6 7 0 9 4 6 10 -4 6 1 7 11 3 15 -6 15 -7 -1 -15z m400 0 c-9 -6 -19 -7 -22
-4 -4 3 -1 6 6 6 7 0 9 4 6 10 -4 6 1 7 11 3 15 -6 15 -7 -1 -15z m240 0 c-9
-6 -19 -7 -22 -4 -4 3 -1 6 6 6 7 0 9 4 6 10 -4 6 1 7 11 3 15 -6 15 -7 -1
-15z m400 0 c-9 -6 -19 -7 -22 -4 -4 3 -1 6 6 6 7 0 9 4 6 10 -4 6 1 7 11 3
15 -6 15 -7 -1 -15z m-3955 2 c0 -5 -4 -10 -10 -10 -5 0 -10 5 -10 10 0 6 5
10 10 10 6 0 10 -4 10 -10z m160 0 c0 -5 -4 -10 -10 -10 -5 0 -10 5 -10 10 0
6 5 10 10 10 6 0 10 -4 10 -10z m800 0 c0 -5 -4 -10 -10 -10 -5 0 -10 5 -10
10 0 6 5 10 10 10 6 0 10 -4 10 -10z m160 0 c0 -5 -4 -10 -10 -10 -5 0 -10 5
-10 10 0 6 5 10 10 10 6 0 10 -4 10 -10z"/>
<path d="M2726 2981 c-4 -5 -2 -12 3 -15 5 -4 12 -2 15 3 4 5 2 12 -3 15 -5 4
-12 2 -15 -3z"/>
<path d="M2926 2203 c-1 -1 -36 -3 -79 -4 -73 -2 -100 -10 -78 -23 5 -4 12 -2
16 4 9 14 28 13 23 -2 -2 -6 -22 -13 -43 -15 -39 -3 -59 -19 -48 -37 4 -5 -1
-7 -10 -3 -17 6 -42 -24 -30 -37 3 -3 -3 -6 -15 -6 -14 0 -22 -7 -24 -22 -2
-15 -9 -22 -21 -22 -17 2 -18 -2 -20 -78 0 -20 -4 -35 -9 -32 -4 3 -8 0 -8 -7
0 -7 -3 -9 -6 -6 -4 4 -2 12 4 20 6 7 7 19 3 26 -15 23 -20 -14 -18 -124 1
-64 6 -104 12 -103 6 2 9 9 9 15 -1 7 2 10 7 7 5 -3 7 -16 5 -29 -2 -12 2 -35
9 -49 8 -15 10 -24 5 -21 -6 4 -10 2 -10 -3 0 -15 28 -22 34 -9 2 7 5 0 5 -15
1 -16 6 -29 11 -29 6 -1 14 -2 19 -3 16 -2 25 -16 10 -16 -10 -1 -9 -5 5 -15
10 -8 23 -12 27 -9 8 5 13 -10 10 -29 -1 -4 4 -7 11 -6 29 3 68 -1 67 -8 -4
-26 6 -31 64 -32 52 -2 4333 -3 4513 -2 53 1 62 4 60 19 -1 13 8 18 42 20 34
3 42 7 42 23 0 12 7 19 20 19 14 0 20 7 20 21 0 11 4 18 9 14 14 -8 41 23 35
40 -4 10 0 13 15 10 22 -4 25 13 23 105 0 14 2 19 5 12 2 -6 10 -9 15 -6 7 5
8 2 2 -7 -14 -23 -14 -42 0 -30 6 5 13 41 14 81 2 60 0 75 -15 86 -13 10 -14
13 -2 9 12 -5 15 2 14 30 -1 35 -17 50 -21 20 -1 -8 2 -13 7 -10 5 4 6 -1 3
-10 -9 -23 -18 -10 -19 29 -1 18 -4 37 -7 42 -3 5 -4 17 -3 26 2 9 -4 19 -12
22 -9 4 -11 2 -7 -6 4 -7 3 -8 -4 -4 -7 4 -12 16 -12 27 0 12 -7 19 -20 19
-14 0 -20 6 -18 18 2 11 -4 18 -20 20 -12 2 -20 7 -18 11 9 15 -11 30 -43 33
-36 3 -48 13 -30 24 7 4 9 3 6 -3 -3 -5 0 -10 7 -10 7 0 13 5 13 12 0 6 -16
11 -36 12 -56 2 -4512 8 -4515 6z m-331 -321 c-3 -3 -11 0 -18 7 -9 10 -8 11
6 5 10 -3 15 -9 12 -12z"/>
<path d="M1166 421 c-4 -5 -2 -12 3 -15 5 -4 12 -2 15 3 4 5 2 12 -3 15 -5 4
-12 2 -15 -3z"/>
<path d="M1723 17 c0 -9 709 -12 3401 -12 2211 0 3399 3 3396 10 -7 13 -30 16
-30 4 0 -6 -6 -7 -12 -2 -17 10 -128 12 -128 2 0 -4 -8 -6 -17 -4 -10 2 -18 4
-18 5 0 1 -19 3 -42 5 -24 1 -43 -2 -43 -7 0 -5 -6 -6 -12 -1 -18 11 -108 12
-108 1 0 -5 -6 -6 -12 -1 -18 11 -108 12 -108 1 0 -5 -6 -6 -12 -1 -18 11
-108 12 -108 1 0 -5 -6 -6 -12 -1 -18 11 -108 12 -108 1 0 -5 -6 -6 -12 -1
-18 11 -108 12 -108 1 0 -5 -6 -6 -12 -1 -18 11 -108 12 -108 1 0 -5 -6 -6
-12 -1 -18 11 -108 12 -108 1 0 -5 -6 -6 -12 -1 -18 11 -108 12 -108 1 0 -5
-6 -6 -12 -1 -18 11 -108 12 -108 1 0 -5 -6 -6 -12 -1 -18 11 -108 12 -108 1
0 -5 -6 -6 -12 -1 -18 11 -108 12 -108 1 0 -5 -6 -6 -12 -1 -18 11 -108 12
-108 1 0 -5 -6 -6 -12 -1 -18 11 -108 12 -108 1 0 -5 -6 -6 -12 -1 -18 11
-108 12 -108 1 0 -5 -6 -6 -12 -1 -18 11 -108 12 -108 1 0 -5 -6 -6 -12 -1
-18 11 -108 12 -108 1 0 -5 -6 -6 -12 -1 -18 11 -108 12 -108 1 0 -5 -6 -6
-12 -1 -18 11 -108 12 -108 1 0 -5 -6 -6 -12 -1 -18 11 -108 12 -108 1 0 -5
-6 -6 -12 -1 -18 11 -108 12 -108 1 0 -5 -6 -6 -12 -1 -18 11 -108 12 -108 1
0 -5 -6 -6 -12 -1 -18 11 -108 12 -108 1 0 -5 -6 -6 -12 -1 -18 11 -108 12
-108 1 0 -5 -6 -6 -12 -1 -18 11 -108 12 -108 1 0 -5 -6 -6 -12 -1 -18 11
-108 12 -108 1 0 -5 -6 -6 -12 -1 -18 11 -108 12 -108 1 0 -5 -6 -6 -12 -1
-18 11 -108 12 -108 1 0 -5 -6 -6 -12 -1 -18 11 -108 12 -108 1 0 -5 -6 -6
-12 -1 -18 11 -108 12 -108 1 0 -5 -6 -6 -12 -1 -18 11 -108 12 -108 1 0 -5
-6 -6 -12 -1 -18 11 -108 12 -108 1 0 -5 -6 -6 -12 -1 -18 11 -108 12 -108 1
0 -5 -6 -6 -12 -1 -18 11 -108 12 -108 1 0 -5 -6 -6 -12 -1 -18 11 -108 12
-108 1 0 -5 -6 -6 -12 -1 -18 11 -108 12 -108 1 0 -5 -6 -6 -12 -1 -18 11
-108 12 -108 1 0 -5 -6 -6 -12 -1 -18 11 -108 12 -108 1 0 -5 -6 -6 -12 -1
-18 11 -108 12 -108 1 0 -5 -6 -6 -12 -1 -18 11 -108 12 -108 1 0 -5 -6 -6
-12 -1 -18 11 -108 12 -108 1 0 -5 -6 -6 -12 -1 -18 11 -108 12 -108 1 0 -5
-6 -6 -12 -1 -18 11 -108 12 -108 1 0 -5 -6 -6 -12 -1 -18 11 -108 12 -108 1
0 -5 -6 -6 -12 -1 -18 11 -108 12 -108 1 0 -5 -6 -6 -12 -1 -18 11 -108 12
-108 1 0 -5 -6 -6 -12 -1 -18 11 -108 12 -108 1 0 -5 -6 -6 -12 -1 -18 11
-108 12 -108 1 0 -5 -6 -6 -12 -1 -18 11 -108 12 -108 1 0 -5 -6 -6 -12 -1
-18 11 -108 12 -108 1 0 -5 -6 -6 -12 -1 -18 11 -108 12 -108 1 0 -5 -6 -6
-12 -1 -18 11 -108 12 -108 1 0 -5 -6 -6 -12 -1 -18 11 -108 12 -108 1 0 -5
-6 -6 -12 -1 -18 11 -108 12 -108 1 0 -5 -6 -6 -12 -1 -19 11 -108 12 -108 0
0 -5 -6 -5 -13 2 -10 8 -14 7 -14 -2z"/>
</g>
</svg>
